<svg xmlns="http://www.w3.org/2000/svg" width="22.677" height="22.677" viewBox="0 0 22.677 22.677"><defs><style>.a{fill:#04dbbe;}</style></defs><g transform="translate(0)"><path class="a" d="M16.3,22.677a6.318,6.318,0,0,1-2.168-.387,23.114,23.114,0,0,1-8.393-5.35A23.112,23.112,0,0,1,.388,8.547a6.272,6.272,0,0,1-.32-3.083A6.432,6.432,0,0,1,3.373.755,6.314,6.314,0,0,1,6.4,0,.709.709,0,0,1,7.09.56L8.2,5.751a.709.709,0,0,1-.192.65L6.11,8.3a18.653,18.653,0,0,0,8.267,8.267l1.9-1.9a.709.709,0,0,1,.65-.192l5.191,1.112a.709.709,0,0,1,.56.693,6.314,6.314,0,0,1-.755,3.023,6.432,6.432,0,0,1-4.708,3.306,6.3,6.3,0,0,1-.915.067ZM5.831,1.448A4.965,4.965,0,0,0,1.72,8.063,21.494,21.494,0,0,0,14.615,20.958a4.965,4.965,0,0,0,6.615-4.111l-4.223-.9-1.985,1.985a.709.709,0,0,1-.8.14A20.065,20.065,0,0,1,4.61,8.458a.709.709,0,0,1,.14-.8L6.735,5.671Z" transform="translate(0 0)"/></g></svg>