<svg xmlns="http://www.w3.org/2000/svg" width="26.329" height="26.544" viewBox="0 0 26.329 26.544"><defs><style>.a{fill:#7ad06d;}</style></defs><g transform="translate(-1.69 0)"><path class="a" d="M14.211.016A13.17,13.17,0,0,0,3.123,19.143l-1.4,6.784a.512.512,0,0,0,.62.6l6.648-1.575A13.166,13.166,0,1,0,14.211.016Zm7.932,20.438A10.315,10.315,0,0,1,10.267,22.4l-.926-.461L5.265,22.9l.858-4.165-.456-.893a10.317,10.317,0,0,1,1.9-11.968A10.308,10.308,0,1,1,22.144,20.454Z" transform="translate(0 0)"/><path class="a" d="M117.6,116.618l-2.55-.732a.95.95,0,0,0-.941.248l-.624.635a.929.929,0,0,1-1.01.213,13.613,13.613,0,0,1-4.392-3.873.929.929,0,0,1,.074-1.03l.544-.7a.95.95,0,0,0,.117-.966l-1.073-2.426a.951.951,0,0,0-1.485-.34,4.289,4.289,0,0,0-1.659,2.53c-.181,1.787.585,4.039,3.483,6.743,3.347,3.124,6.028,3.537,7.773,3.114a4.289,4.289,0,0,0,2.28-1.988A.951.951,0,0,0,117.6,116.618Z" transform="translate(-96.359 -100.598)"/></g></svg>