<svg xmlns="http://www.w3.org/2000/svg" width="26.736" height="26.678" viewBox="0 0 26.736 26.678"><defs><style>.a{fill:#e8c022;}</style></defs><g transform="translate(0 -4.833)"><path class="a" d="M3.225,31.511a3.981,3.981,0,0,1-1.465-.276L.7,30.819l.813-.876a5.181,5.181,0,0,0,1.365-3.5,13.388,13.388,0,1,1,4.2,3.5A6.543,6.543,0,0,1,3.225,31.511Zm3.694-3.385.39.225a12.165,12.165,0,0,0,6.058,1.613A11.915,11.915,0,0,0,25.377,18.172,11.916,11.916,0,0,0,13.367,6.38,11.915,11.915,0,0,0,1.359,18.172,11.681,11.681,0,0,0,4.052,25.61l.177.213.008.293a7.072,7.072,0,0,1-.957,3.847,5.749,5.749,0,0,0,3.3-1.527Z"/><path class="a" d="M16.415,36a4.727,4.727,0,0,1-1.119-.108,2,2,0,0,1-.595-.22c-.028-.028-.038-.09-.031-.19a1.984,1.984,0,0,1,.046-.307,1.412,1.412,0,0,1,.092-.282c.038-.082.073-.12.108-.113q.267.092.58.179a3.04,3.04,0,0,0,.8.087,2.163,2.163,0,0,0,.837-.144.516.516,0,0,0,.344-.513.66.66,0,0,0-.226-.518,2.819,2.819,0,0,0-.811-.425,5.789,5.789,0,0,1-.6-.273,2.287,2.287,0,0,1-.5-.349A1.442,1.442,0,0,1,15,32.349a1.6,1.6,0,0,1-.124-.657,1.482,1.482,0,0,1,.118-.585,1.227,1.227,0,0,1,.364-.477,1.851,1.851,0,0,1,.631-.318,3.151,3.151,0,0,1,.919-.118q.349,0,.58.015a3.8,3.8,0,0,1,.38.041,1.707,1.707,0,0,1,.241.057c.062.021.12.038.174.051s.072.08.072.179a1.367,1.367,0,0,1-.041.318,1.18,1.18,0,0,1-.113.3q-.072.129-.144.108-.174-.051-.477-.113a2.941,2.941,0,0,0-.59-.062,1.423,1.423,0,0,0-.806.164.521.521,0,0,0-.221.441.562.562,0,0,0,.246.477,3.143,3.143,0,0,0,.77.364,3.325,3.325,0,0,1,1.226.754,1.516,1.516,0,0,1,.4,1.073,1.58,1.58,0,0,1-.184.8,1.385,1.385,0,0,1-.493.5,2.14,2.14,0,0,1-.7.262A4.286,4.286,0,0,1,16.415,36Z" transform="translate(-8.996 -14.182)"/><path class="a" d="M34.443,36.266a.391.391,0,0,1-.282-.072.414.414,0,0,1-.067-.277V32.325q-.41.667-.632,1.031l-.323.534c-.068.112-.11.179-.124.2a.1.1,0,0,0-.02.042c-.061.1-.1.169-.128.2a.183.183,0,0,1-.149.046h-.164a.238.238,0,0,1-.174-.046,1.233,1.233,0,0,1-.123-.2L31.21,32.346V35.98a.408.408,0,0,1-.046.211q-.046.077-.241.077h-.431a.633.633,0,0,1-.252-.046c-.072-.031-.108-.131-.108-.3V30.992a.358.358,0,0,1,.077-.272.327.327,0,0,1,.221-.067h.513a.511.511,0,0,1,.19.031.393.393,0,0,1,.159.154l1.365,2.176,1.365-2.155a.373.373,0,0,1,.149-.159.358.358,0,0,1,.169-.046H34.9c.13,0,.2.027.226.082a.829.829,0,0,1,.031.267v4.966a.475.475,0,0,1-.041.226c-.028.048-.106.072-.236.072Z" transform="translate(-19.624 -14.497)"/><path class="a" d="M51.009,36a4.725,4.725,0,0,1-1.119-.108,1.992,1.992,0,0,1-.595-.22c-.028-.028-.038-.09-.031-.19a1.946,1.946,0,0,1,.046-.307,1.392,1.392,0,0,1,.092-.282c.037-.082.073-.12.108-.113q.267.092.58.179a3.024,3.024,0,0,0,.8.087,2.164,2.164,0,0,0,.837-.144.517.517,0,0,0,.344-.513.659.659,0,0,0-.226-.518,2.822,2.822,0,0,0-.811-.425,5.819,5.819,0,0,1-.6-.273,2.3,2.3,0,0,1-.5-.349,1.445,1.445,0,0,1-.338-.477,1.6,1.6,0,0,1-.124-.657,1.487,1.487,0,0,1,.118-.585,1.231,1.231,0,0,1,.365-.477,1.849,1.849,0,0,1,.631-.318,3.155,3.155,0,0,1,.919-.118q.349,0,.58.015a3.818,3.818,0,0,1,.38.041,1.728,1.728,0,0,1,.241.057c.061.02.12.038.175.051s.072.08.072.179a1.352,1.352,0,0,1-.042.318,1.18,1.18,0,0,1-.112.3q-.072.129-.144.108c-.116-.034-.276-.072-.477-.113a2.943,2.943,0,0,0-.59-.062,1.423,1.423,0,0,0-.806.164.522.522,0,0,0-.221.441.562.562,0,0,0,.247.477,3.137,3.137,0,0,0,.77.364,3.328,3.328,0,0,1,1.226.754,1.516,1.516,0,0,1,.4,1.073,1.58,1.58,0,0,1-.184.8,1.385,1.385,0,0,1-.493.5,2.14,2.14,0,0,1-.7.262A4.288,4.288,0,0,1,51.009,36Z" transform="translate(-32.773 -14.182)"/></g></svg>